<?xml version="1.0" standalone="no"?>
<!DOCTYPE svg PUBLIC "-//W3C//DTD SVG 20010904//EN"
 "http://www.w3.org/TR/2001/REC-SVG-20010904/DTD/svg10.dtd">
<svg version="1.0" xmlns="http://www.w3.org/2000/svg"
 width="32.000000pt" height="32.000000pt" viewBox="0 0 32.000000 32.000000"
 preserveAspectRatio="xMidYMid meet">

<g transform="translate(0.000000,32.000000) scale(0.100000,-0.100000)"
fill="#000000" stroke="none">
<path d="M0 160 l0 -160 160 0 160 0 0 160 0 160 -160 0 -160 0 0 -160z m150
127 c0 -7 -10 -17 -22 -22 -13 -6 -23 -19 -23 -30 0 -11 10 -24 23 -30 30 -13
28 -35 -3 -35 -18 0 -25 -5 -25 -19 0 -31 -19 -35 -30 -7 -6 16 -17 26 -30 26
-18 0 -20 6 -20 65 l0 65 65 0 c46 0 65 -4 65 -13z m150 -52 c0 -63 -12 -85
-25 -46 -12 38 -68 38 -78 0 -7 -28 -27 -23 -27 6 0 18 -5 25 -20 25 -11 0
-20 7 -20 15 0 8 9 15 20 15 15 0 20 7 20 25 0 24 2 25 65 25 l65 0 0 -65z
m-253 -105 c10 -38 73 -33 73 6 0 8 7 14 15 14 9 0 15 -9 15 -25 0 -18 5 -25
20 -25 11 0 20 -7 20 -15 0 -8 -9 -15 -20 -15 -15 0 -20 -7 -20 -25 0 -24 -2
-25 -65 -25 l-65 0 0 65 c0 40 4 65 11 65 6 0 13 -9 16 -20z"/>
</g>
</svg>
